<svg width="28" height="28" xmlns="http://www.w3.org/2000/svg" xmlns:xlink="http://www.w3.org/1999/xlink" overflow="hidden"><defs><clipPath id="clip0"><rect x="770" y="680" width="28" height="28"/></clipPath><clipPath id="clip1"><rect x="771" y="681" width="27" height="27"/></clipPath><clipPath id="clip2"><rect x="771" y="681" width="27" height="27"/></clipPath><clipPath id="clip3"><rect x="771" y="681" width="27" height="27"/></clipPath></defs><g clip-path="url(#clip0)" transform="translate(-770 -680)"><g clip-path="url(#clip1)"><g clip-path="url(#clip2)"><g clip-path="url(#clip3)"><path d="M794.062 699.562 794.062 697.031 785.906 691.266 785.906 685.781C785.906 684.684 785.344 683.25 784.5 683.25 783.684 683.25 783.094 684.684 783.094 685.781L783.094 691.266 774.938 697.031 774.938 699.562 783.094 695.484 783.094 701.616 780.281 704.062 780.281 705.75 784.5 704.062 788.719 705.75 788.719 704.062 785.906 701.616 785.906 695.484 794.062 699.562Z" fill="#000000" fill-rule="nonzero" fill-opacity="1"/></g></g></g></g></svg>