<svg width="40" height="40" xmlns="http://www.w3.org/2000/svg" xmlns:xlink="http://www.w3.org/1999/xlink" overflow="hidden"><defs><clipPath id="clip0"><rect x="592" y="312" width="40" height="40"/></clipPath><clipPath id="clip1"><rect x="592" y="312" width="39" height="39"/></clipPath><clipPath id="clip2"><rect x="592" y="312" width="39" height="39"/></clipPath><clipPath id="clip3"><rect x="592" y="312" width="39" height="39"/></clipPath></defs><g clip-path="url(#clip0)" transform="translate(-592 -312)"><g clip-path="url(#clip1)"><g clip-path="url(#clip2)"><g clip-path="url(#clip3)"><path d="M623.688 320.125 616.781 320.125 616.781 318.094C616.781 316.509 615.522 315.25 613.938 315.25L609.062 315.25C607.478 315.25 606.219 316.509 606.219 318.094L606.219 320.125 599.312 320.125C598.419 320.125 597.688 320.856 597.688 321.75L597.688 323.375 625.312 323.375 625.312 321.75C625.312 320.856 624.581 320.125 623.688 320.125ZM608.656 318.094C608.656 317.85 608.819 317.688 609.062 317.688L613.938 317.688C614.181 317.688 614.344 317.85 614.344 318.094L614.344 320.125 608.656 320.125 608.656 318.094Z" fill="#FFFFFF" fill-rule="nonzero" fill-opacity="1"/><path d="M600.125 346.125C600.125 347.019 600.856 347.75 601.75 347.75L621.25 347.75C622.144 347.75 622.875 347.019 622.875 346.125L622.875 325 600.125 325 600.125 346.125ZM616.781 327.438 619.219 327.438 619.219 345.312 616.781 345.312 616.781 327.438ZM610.281 327.438 612.719 327.438 612.719 345.312 610.281 345.312 610.281 327.438ZM603.781 327.438 606.219 327.438 606.219 345.312 603.781 345.312 603.781 327.438Z" fill="#FFFFFF" fill-rule="nonzero" fill-opacity="1"/></g></g></g></g></svg>